<mxfile host="app.diagrams.net" agent="Mozilla/5.0 (Windows NT 10.0; Win64; x64) AppleWebKit/537.36 (KHTML, like Gecko) Chrome/129.0.0.0 Safari/537.36" version="24.8.2">
  <diagram name="1 oldal" id="pHmYB7Fs5-ZqaosAiOBj">
    <mxGraphModel dx="844" dy="439" grid="1" gridSize="10" guides="1" tooltips="1" connect="1" arrows="1" fold="1" page="1" pageScale="1" pageWidth="827" pageHeight="1169" math="0" shadow="0">
      <root>
        <mxCell id="0" />
        <mxCell id="1" parent="0" />
        <mxCell id="K-9uPAsgbGGanHHCpaEs-1" value="Tenant_1" style="ellipse;whiteSpace=wrap;html=1;" vertex="1" parent="1">
          <mxGeometry x="234" y="460" width="110" height="40" as="geometry" />
        </mxCell>
        <mxCell id="K-9uPAsgbGGanHHCpaEs-2" value="Server" style="rounded=0;whiteSpace=wrap;html=1;" vertex="1" parent="1">
          <mxGeometry x="359" y="530" width="120" height="55" as="geometry" />
        </mxCell>
        <mxCell id="K-9uPAsgbGGanHHCpaEs-3" value="" style="shape=cylinder3;whiteSpace=wrap;html=1;boundedLbl=1;backgroundOutline=1;size=15;" vertex="1" parent="1">
          <mxGeometry x="278" y="620" width="282" height="140" as="geometry" />
        </mxCell>
        <mxCell id="K-9uPAsgbGGanHHCpaEs-8" value="Database" style="text;html=1;align=center;verticalAlign=middle;resizable=0;points=[];autosize=1;strokeColor=none;fillColor=none;" vertex="1" parent="1">
          <mxGeometry x="388" y="620" width="70" height="30" as="geometry" />
        </mxCell>
        <mxCell id="K-9uPAsgbGGanHHCpaEs-11" value="" style="group" vertex="1" connectable="0" parent="1">
          <mxGeometry x="290" y="670" width="70" height="70" as="geometry" />
        </mxCell>
        <mxCell id="K-9uPAsgbGGanHHCpaEs-9" value="" style="shape=note;whiteSpace=wrap;html=1;backgroundOutline=1;darkOpacity=0.05;" vertex="1" parent="K-9uPAsgbGGanHHCpaEs-11">
          <mxGeometry x="5" width="60" height="70" as="geometry" />
        </mxCell>
        <mxCell id="K-9uPAsgbGGanHHCpaEs-10" value="&lt;span style=&quot;text-wrap: wrap;&quot;&gt;Tenant_1&lt;/span&gt;&lt;div style=&quot;text-wrap: wrap;&quot;&gt;Schema&lt;/div&gt;" style="text;html=1;align=center;verticalAlign=middle;resizable=0;points=[];autosize=1;strokeColor=none;fillColor=none;" vertex="1" parent="K-9uPAsgbGGanHHCpaEs-11">
          <mxGeometry y="30" width="70" height="40" as="geometry" />
        </mxCell>
        <mxCell id="K-9uPAsgbGGanHHCpaEs-12" value="" style="group" vertex="1" connectable="0" parent="1">
          <mxGeometry x="365" y="670" width="70" height="70" as="geometry" />
        </mxCell>
        <mxCell id="K-9uPAsgbGGanHHCpaEs-13" value="" style="shape=note;whiteSpace=wrap;html=1;backgroundOutline=1;darkOpacity=0.05;" vertex="1" parent="K-9uPAsgbGGanHHCpaEs-12">
          <mxGeometry x="5" width="60" height="70" as="geometry" />
        </mxCell>
        <mxCell id="K-9uPAsgbGGanHHCpaEs-14" value="&lt;span style=&quot;text-wrap: wrap;&quot;&gt;Tenant_2&lt;/span&gt;&lt;div style=&quot;text-wrap: wrap;&quot;&gt;Schema&lt;/div&gt;" style="text;html=1;align=center;verticalAlign=middle;resizable=0;points=[];autosize=1;strokeColor=none;fillColor=none;" vertex="1" parent="K-9uPAsgbGGanHHCpaEs-12">
          <mxGeometry y="30" width="70" height="40" as="geometry" />
        </mxCell>
        <mxCell id="K-9uPAsgbGGanHHCpaEs-15" value="" style="group" vertex="1" connectable="0" parent="1">
          <mxGeometry x="484" y="670" width="70" height="70" as="geometry" />
        </mxCell>
        <mxCell id="K-9uPAsgbGGanHHCpaEs-16" value="" style="shape=note;whiteSpace=wrap;html=1;backgroundOutline=1;darkOpacity=0.05;" vertex="1" parent="K-9uPAsgbGGanHHCpaEs-15">
          <mxGeometry x="5" width="60" height="70" as="geometry" />
        </mxCell>
        <mxCell id="K-9uPAsgbGGanHHCpaEs-17" value="&lt;span style=&quot;text-wrap: wrap;&quot;&gt;Tenant_N&lt;/span&gt;&lt;div style=&quot;text-wrap: wrap;&quot;&gt;Schema&lt;/div&gt;" style="text;html=1;align=center;verticalAlign=middle;resizable=0;points=[];autosize=1;strokeColor=none;fillColor=none;" vertex="1" parent="K-9uPAsgbGGanHHCpaEs-15">
          <mxGeometry y="30" width="70" height="40" as="geometry" />
        </mxCell>
        <mxCell id="K-9uPAsgbGGanHHCpaEs-18" value="Tenant_2" style="ellipse;whiteSpace=wrap;html=1;" vertex="1" parent="1">
          <mxGeometry x="368" y="440" width="110" height="40" as="geometry" />
        </mxCell>
        <mxCell id="K-9uPAsgbGGanHHCpaEs-19" value="Tenant_N" style="ellipse;whiteSpace=wrap;html=1;" vertex="1" parent="1">
          <mxGeometry x="500" y="460" width="110" height="40" as="geometry" />
        </mxCell>
        <mxCell id="K-9uPAsgbGGanHHCpaEs-21" value="&lt;font style=&quot;font-size: 17px;&quot;&gt;. . .&lt;/font&gt;" style="text;html=1;align=center;verticalAlign=middle;resizable=0;points=[];autosize=1;strokeColor=none;fillColor=none;" vertex="1" parent="1">
          <mxGeometry x="434" y="710" width="50" height="30" as="geometry" />
        </mxCell>
        <mxCell id="K-9uPAsgbGGanHHCpaEs-23" value="" style="endArrow=classic;html=1;rounded=0;exitX=0.604;exitY=0.983;exitDx=0;exitDy=0;exitPerimeter=0;entryX=-0.005;entryY=0.313;entryDx=0;entryDy=0;entryPerimeter=0;" edge="1" parent="1" source="K-9uPAsgbGGanHHCpaEs-1" target="K-9uPAsgbGGanHHCpaEs-2">
          <mxGeometry width="50" height="50" relative="1" as="geometry">
            <mxPoint x="320" y="510" as="sourcePoint" />
            <mxPoint x="350" y="540" as="targetPoint" />
          </mxGeometry>
        </mxCell>
        <mxCell id="K-9uPAsgbGGanHHCpaEs-24" value="" style="endArrow=classic;html=1;rounded=0;exitX=0;exitY=0;exitDx=0;exitDy=0;entryX=0.778;entryY=0.913;entryDx=0;entryDy=0;entryPerimeter=0;" edge="1" parent="1" source="K-9uPAsgbGGanHHCpaEs-2" target="K-9uPAsgbGGanHHCpaEs-1">
          <mxGeometry width="50" height="50" relative="1" as="geometry">
            <mxPoint x="350" y="520" as="sourcePoint" />
            <mxPoint x="330" y="500" as="targetPoint" />
          </mxGeometry>
        </mxCell>
        <mxCell id="K-9uPAsgbGGanHHCpaEs-28" value="" style="endArrow=classic;html=1;rounded=0;exitX=1;exitY=0;exitDx=0;exitDy=0;" edge="1" parent="1" source="K-9uPAsgbGGanHHCpaEs-2" target="K-9uPAsgbGGanHHCpaEs-19">
          <mxGeometry width="50" height="50" relative="1" as="geometry">
            <mxPoint x="490" y="520" as="sourcePoint" />
            <mxPoint x="490" y="500" as="targetPoint" />
          </mxGeometry>
        </mxCell>
        <mxCell id="K-9uPAsgbGGanHHCpaEs-29" value="" style="endArrow=classic;html=1;rounded=0;entryX=1;entryY=0.25;entryDx=0;entryDy=0;exitX=0.412;exitY=1.024;exitDx=0;exitDy=0;exitPerimeter=0;" edge="1" parent="1" source="K-9uPAsgbGGanHHCpaEs-19" target="K-9uPAsgbGGanHHCpaEs-2">
          <mxGeometry width="50" height="50" relative="1" as="geometry">
            <mxPoint x="430" y="550" as="sourcePoint" />
            <mxPoint x="480" y="500" as="targetPoint" />
          </mxGeometry>
        </mxCell>
        <mxCell id="K-9uPAsgbGGanHHCpaEs-30" value="" style="endArrow=classic;html=1;rounded=0;entryX=0.42;entryY=1.012;entryDx=0;entryDy=0;entryPerimeter=0;exitX=0.458;exitY=0;exitDx=0;exitDy=0;exitPerimeter=0;" edge="1" parent="1" source="K-9uPAsgbGGanHHCpaEs-2" target="K-9uPAsgbGGanHHCpaEs-18">
          <mxGeometry width="50" height="50" relative="1" as="geometry">
            <mxPoint x="430" y="550" as="sourcePoint" />
            <mxPoint x="480" y="500" as="targetPoint" />
          </mxGeometry>
        </mxCell>
        <mxCell id="K-9uPAsgbGGanHHCpaEs-31" value="" style="endArrow=classic;html=1;rounded=0;exitX=0.56;exitY=1.002;exitDx=0;exitDy=0;exitPerimeter=0;" edge="1" parent="1" source="K-9uPAsgbGGanHHCpaEs-18">
          <mxGeometry width="50" height="50" relative="1" as="geometry">
            <mxPoint x="430" y="550" as="sourcePoint" />
            <mxPoint x="430" y="530" as="targetPoint" />
          </mxGeometry>
        </mxCell>
        <mxCell id="K-9uPAsgbGGanHHCpaEs-32" value="" style="endArrow=classic;html=1;rounded=0;entryX=0.294;entryY=-0.011;entryDx=0;entryDy=0;entryPerimeter=0;exitX=0.415;exitY=1.014;exitDx=0;exitDy=0;exitPerimeter=0;" edge="1" parent="1" source="K-9uPAsgbGGanHHCpaEs-2" target="K-9uPAsgbGGanHHCpaEs-8">
          <mxGeometry width="50" height="50" relative="1" as="geometry">
            <mxPoint x="390" y="610" as="sourcePoint" />
            <mxPoint x="440" y="560" as="targetPoint" />
          </mxGeometry>
        </mxCell>
        <mxCell id="K-9uPAsgbGGanHHCpaEs-33" value="" style="endArrow=classic;html=1;rounded=0;entryX=0.58;entryY=1.008;entryDx=0;entryDy=0;entryPerimeter=0;exitX=0.583;exitY=-0.004;exitDx=0;exitDy=0;exitPerimeter=0;" edge="1" parent="1" source="K-9uPAsgbGGanHHCpaEs-8" target="K-9uPAsgbGGanHHCpaEs-2">
          <mxGeometry width="50" height="50" relative="1" as="geometry">
            <mxPoint x="390" y="610" as="sourcePoint" />
            <mxPoint x="440" y="560" as="targetPoint" />
          </mxGeometry>
        </mxCell>
      </root>
    </mxGraphModel>
  </diagram>
</mxfile>
